<svg width="132" height="40" viewBox="0 0 132 40" fill="none" xmlns="http://www.w3.org/2000/svg">
  <path d="M14.5 8L23 32H18.5L16 24.5H7L4.5 32H0L8.5 8H14.5ZM11.5 13L8 21.5H15L11.5 13Z" fill="#5683D2"/>
  <path d="M35 8V32H30.5V8H35Z" fill="#5683D2"/>
  <path d="M48 8L56.5 22V8H61V32H56L47.5 18V32H43V8H48Z" fill="#5683D2"/>
  <path d="M75 8V12.5H67V17.5H74V22H67V27.5H75V32H62.5V8H75Z" fill="#5683D2"/>
  <path d="M77 8H81.5L86 18L90.5 8H95L87.5 22V32H83V22L77 8Z" fill="#5683D2"/>
  <path d="M107 8V12.5H99V17.5H106V22H99V27.5H107V32H94.5V8H107Z" fill="#5683D2"/>
  <path d="M110 8H114.5L119 18L123.5 8H128L120.5 22V32H116V22L110 8Z" fill="#5683D2"/>
</svg>